<?xml version="1.0" encoding="UTF-8" standalone="no"?>
<!-- Created with Inkscape (http://www.inkscape.org/) -->

<svg
   xmlns:dc="http://purl.org/dc/elements/1.1/"
   xmlns:cc="http://creativecommons.org/ns#"
   xmlns:rdf="http://www.w3.org/1999/02/22-rdf-syntax-ns#"
   xmlns:svg="http://www.w3.org/2000/svg"
   xmlns="http://www.w3.org/2000/svg"
   xmlns:sodipodi="http://sodipodi.sourceforge.net/DTD/sodipodi-0.dtd"
   xmlns:inkscape="http://www.inkscape.org/namespaces/inkscape"
   width="596.42981"
   height="225.07272"
   id="svg2"
   version="1.1"
   inkscape:version="0.48.5 r10040"
   sodipodi:docname="photog.svg">
  <defs
     id="defs4" />
  <sodipodi:namedview
     id="base"
     pagecolor="#4e4e4e"
     bordercolor="#666666"
     borderopacity="1.0"
     inkscape:pageopacity="0"
     inkscape:pageshadow="2"
     inkscape:zoom="5.6568542"
     inkscape:cx="479.18747"
     inkscape:cy="42.862943"
     inkscape:document-units="px"
     inkscape:current-layer="g4320"
     showgrid="false"
     inkscape:window-width="1920"
     inkscape:window-height="1076"
     inkscape:window-x="0"
     inkscape:window-y="0"
     inkscape:window-maximized="0"
     height="3000px"
     inkscape:snap-global="false"
     fit-margin-top="10"
     fit-margin-right="10"
     fit-margin-bottom="10"
     fit-margin-left="10">
    <inkscape:grid
       type="xygrid"
       id="grid4368"
       empspacing="5"
       visible="true"
       enabled="true"
       snapvisiblegridlinesonly="true"
       originx="-233.3506px"
       originy="-2718.3203px" />
  </sodipodi:namedview>
  <metadata
     id="metadata7">
    <rdf:RDF>
      <cc:Work
         rdf:about="">
        <dc:format>image/svg+xml</dc:format>
        <dc:type
           rdf:resource="http://purl.org/dc/dcmitype/StillImage" />
        <dc:title />
      </cc:Work>
    </rdf:RDF>
  </metadata>
  <g
     inkscape:label="Border original"
     inkscape:groupmode="layer"
     id="layer1"
     transform="translate(-233.3506,1891.0308)"
     style="display:none"
     sodipodi:insensitive="true">
    <text
       xml:space="preserve"
       style="font-size:211.08081055px;font-style:normal;font-variant:normal;font-weight:normal;font-stretch:normal;text-align:start;line-height:125%;letter-spacing:0px;word-spacing:0px;writing-mode:lr-tb;text-anchor:start;fill:#eeeeff;fill-opacity:0;stroke:#eeeeee;stroke-width:15.10000038;stroke-miterlimit:4;stroke-opacity:1;stroke-dasharray:none;font-family:Trochut;-inkscape-font-specification:Trochut"
       x="236.12494"
       y="-1725.7242"
       id="text3074"
       sodipodi:linespacing="125%"><tspan
         sodipodi:role="line"
         id="tspan3076"
         x="236.12494"
         y="-1725.7242">Photog!</tspan></text>
  </g>
  <g
     inkscape:groupmode="layer"
     id="layer2"
     inkscape:label="Text original"
     style="display:none"
     transform="translate(-233.3506,-56.606989)"
     sodipodi:insensitive="true">
    <text
       transform="translate(0,1947.6378)"
       sodipodi:linespacing="125%"
       id="text3078"
       y="-1725.7242"
       x="236.12494"
       style="font-size:211.08081055px;font-style:normal;font-variant:normal;font-weight:normal;font-stretch:normal;text-align:start;line-height:125%;letter-spacing:0px;word-spacing:0px;writing-mode:lr-tb;text-anchor:start;fill:#333333;fill-opacity:1;stroke:#333333;stroke-width:5;stroke-linejoin:miter;stroke-miterlimit:4;stroke-opacity:1;stroke-dasharray:none;display:inline;font-family:Trochut;-inkscape-font-specification:Trochut"
       xml:space="preserve"><tspan
         y="-1725.7242"
         x="236.12494"
         id="tspan3080"
         sodipodi:role="line">Photog!</tspan></text>
  </g>
  <g
     style="display:inline"
     transform="translate(-233.3506,1891.0308)"
     id="g4320"
     inkscape:groupmode="layer"
     inkscape:label="Border original copy"
     sodipodi:insensitive="true">
    <g
       style="font-size:211.08081055px;font-style:normal;font-variant:normal;font-weight:normal;font-stretch:normal;text-align:start;line-height:125%;letter-spacing:0px;word-spacing:0px;writing-mode:lr-tb;text-anchor:start;fill:#eeeeff;fill-opacity:0;stroke:#eeeeee;stroke-width:15.10000038;stroke-miterlimit:4;stroke-opacity:1;font-family:Trochut;-inkscape-font-specification:Trochut"
       id="text4322">
      <path
         d="m 351.37506,-1777.228 c -1.1e-4,17.3087 -4.50317,30.6068 -13.50917,39.8943 -8.86549,9.1468 -19.34916,13.7203 -31.45104,13.7203 -4.92529,0 -9.4987,-0.9851 -13.72025,-2.9552 -4.08095,-2.1108 -7.38788,-4.7845 -9.9208,-8.021 -4.64382,-5.9103 -7.66931,-11.0466 -9.07648,-15.4089 l 0,66.4904 -22.79672,0 0,-187.8619 22.79672,0 0,23.2189 c 1.97005,-6.0509 5.83986,-11.75 11.60945,-17.0976 5.91021,-5.4879 13.08695,-8.232 21.53024,-8.2321 13.50909,10e-5 24.2742,4.7846 32.29536,14.3535 8.16168,9.4284 12.24258,22.7265 12.24269,39.8943 l 0,42.005 m -23.00781,10.7652 0,-63.3243 c -9e-5,-12.3833 -2.32198,-21.5301 -6.96566,-27.4405 -4.64386,-5.9101 -11.18736,-8.8652 -19.63052,-8.8654 -8.30257,2e-4 -15.05715,4.2921 -20.26376,12.8759 -5.06598,8.4434 -7.59894,18.3642 -7.59891,29.7624 l 0,50.8705 c -3e-5,10.4134 2.74401,19.9824 8.23216,28.707 5.62877,8.584 13.01659,12.8759 22.16348,12.8759 4.22154,0 7.88027,-0.9146 10.9762,-2.744 3.23649,-1.9701 5.62874,-4.2216 7.17675,-6.7546 1.68856,-2.6737 3.0254,-5.8399 4.01054,-9.4986 1.26639,-5.3474 1.89963,-10.8355 1.89972,-16.4643"
         id="path4327"
         inkscape:connector-curvature="0" />
      <path
         d="m 447.93794,-1734.1675 c 2.6736,0 4.85476,-2.2515 6.5435,-6.7546 l 4.01054,0.6333 c -1e-4,1.2665 -0.42226,3.0255 -1.26649,5.277 -0.84441,2.2515 -1.82946,4.0809 -2.95513,5.4881 -2.67378,3.9402 -6.68431,5.9103 -12.03161,5.9103 -11.67987,0 -17.51976,-6.9657 -17.5197,-20.897 l 0,-56.3586 c -6e-5,-13.2277 -4.15132,-19.8415 -12.45377,-19.8416 -5.48815,1e-4 -9.78012,2.4627 -12.87593,7.3878 -3.09589,4.9253 -4.64381,10.6245 -4.64378,17.0976 l 0,70.501 -18.15295,0 0,-145.6458 18.15295,0 0,58.6805 c 4.08086,-9.5689 10.69472,-14.3534 19.8416,-14.3535 9.14677,10e-5 16.18279,3.0256 21.10808,9.0764 4.92514,5.9104 7.38775,14.0018 7.38783,24.2743 l 0,52.3481 c -8e-5,4.7845 1.6182,7.1767 4.85486,7.1767"
         id="path4329"
         inkscape:connector-curvature="0" />
      <path
         d="m 536.82934,-1758.8639 c -8e-5,10.2726 -2.95521,18.7158 -8.8654,25.3297 -5.7696,6.6138 -13.93138,9.9208 -24.48537,9.9208 -10.55407,0 -18.78622,-3.307 -24.69646,-9.9208 -5.76955,-6.6139 -8.65432,-15.0571 -8.65431,-25.3297 l 0,-33.1397 c -10e-6,-10.2725 2.88476,-18.6454 8.65431,-25.1186 5.91024,-6.6138 14.14239,-9.9207 24.69646,-9.9208 10.55399,10e-5 18.71577,3.307 24.48537,9.9208 5.91019,6.4732 8.86532,14.8461 8.8654,25.1186 l 0,33.1397 m -18.36403,8.2321 0,-49.604 c -6e-5,-13.6498 -5.066,-20.4747 -15.19782,-20.4748 -9.99119,1e-4 -14.98677,6.825 -14.98674,20.4748 l 0,49.604 c -3e-5,13.7906 4.99555,20.6859 14.98674,20.6859 10.13182,0 15.19776,-6.8953 15.19782,-20.6859"
         id="path4331"
         inkscape:connector-curvature="0" />
      <path
         d="m 585.17015,-1734.1675 c 2.67365,0 4.85482,-2.2515 6.54351,-6.7546 l 4.01053,0.6333 c -4e-5,1.2665 -0.42221,3.0255 -1.26648,5.277 -0.84437,2.2515 -1.82941,4.1513 -2.95513,5.6992 -0.98509,1.4072 -2.60337,2.6737 -4.85486,3.7994 -2.11085,1.2665 -4.57345,1.8998 -7.38783,1.8998 -11.5391,0 -17.30864,-6.9657 -17.30863,-20.897 l 0,-74.3005 -9.28755,0 0,-6.1213 9.28755,0 0,-35.8838 18.36403,0 0,35.8838 15.19782,0 0,6.1213 -15.19782,0 0,77.8888 c -3e-5,4.5031 1.61826,6.7546 4.85486,6.7546"
         id="path4333"
         inkscape:connector-curvature="0" />
      <path
         d="m 678.23699,-1758.8639 c -8e-5,10.2726 -2.9552,18.7158 -8.86539,25.3297 -5.76961,6.6138 -13.93139,9.9208 -24.48538,9.9208 -10.55407,0 -18.78621,-3.307 -24.69645,-9.9208 -5.76956,-6.6139 -8.65433,-15.0571 -8.65431,-25.3297 l 0,-33.1397 c -2e-5,-10.2725 2.88475,-18.6454 8.65431,-25.1186 5.91024,-6.6138 14.14238,-9.9207 24.69645,-9.9208 10.55399,10e-5 18.71577,3.307 24.48538,9.9208 5.91019,6.4732 8.86531,14.8461 8.86539,25.1186 l 0,33.1397 m -18.36403,8.2321 0,-49.604 c -6e-5,-13.6498 -5.06599,-20.4747 -15.19782,-20.4748 -9.99119,1e-4 -14.98676,6.825 -14.98673,20.4748 l 0,49.604 c -3e-5,13.7906 4.99554,20.6859 14.98673,20.6859 10.13183,0 15.19776,-6.8953 15.19782,-20.6859"
         id="path4335"
         inkscape:connector-curvature="0" />
      <path
         d="m 765.83884,-1824.9322 0,84.2212 c -8e-5,33.4915 -12.45383,50.2372 -37.36131,50.2373 -7.17678,-10e-5 -12.94631,-1.7591 -17.30862,-5.2771 -3.9402,-2.9551 -6.89532,-6.1213 -8.8654,-9.4986 l 3.58838,-2.9551 c 1.26646,2.3922 3.86979,4.7141 7.80999,6.9656 4.08086,2.3923 8.23212,3.5884 12.45377,3.5884 4.36229,0 8.02102,-0.9147 10.9762,-2.744 2.95508,-1.6887 5.13624,-4.3624 6.5435,-8.0211 2.53292,-6.051 3.7994,-14.9164 3.79946,-26.5962 l 0,-3.3773 c -3.79951,9.8504 -10.27265,14.7757 -19.41944,14.7757 -9.14686,0 -16.25324,-3.0255 -21.31916,-9.0765 -4.92523,-6.051 -7.38784,-14.2128 -7.38783,-24.4854 l 0,-36.517 c -10e-6,-10.2725 2.4626,-18.3639 7.38783,-24.2743 5.06592,-6.0508 11.8205,-9.0763 20.26376,-9.0764 9.99111,10e-5 16.81605,4.7142 20.47484,14.1424 l 0,-12.0316 18.36403,0 m -18.36403,70.2899 0,-41.5829 c -6e-5,-6.4731 -1.54799,-12.1723 -4.64378,-17.0976 -2.95518,-4.9251 -7.17679,-7.3877 -12.66485,-7.3878 -8.30254,1e-4 -12.4538,6.5436 -12.45377,19.6305 l 0,50.8705 c -3e-5,13.2277 4.08087,19.8416 12.24269,19.8416 5.7695,0 10.13183,-2.3219 13.08701,-6.9657 2.95507,-4.6437 4.43264,-10.4133 4.4327,-17.3086"
         id="path4337"
         inkscape:connector-curvature="0" />
      <path
         d="m 791.33343,-1862.0824 c -10e-6,-3.5179 1.05539,-6.262 3.16621,-8.2322 2.25151,-2.1107 4.64376,-3.1661 7.17675,-3.1662 2.67366,10e-5 5.06591,1.0555 7.17675,3.1662 2.25149,1.9702 3.37725,4.7143 3.37729,8.2322 l -6.54351,103.8517 -7.80999,0 -6.5435,-103.8517 m 3.79945,135.3028 c -1.82938,-2.2516 -2.74406,-4.9253 -2.74405,-8.0211 -10e-6,-3.0959 0.91467,-5.6992 2.74405,-7.81 1.82935,-2.2515 4.01052,-3.3773 6.54351,-3.3773 2.67366,0 4.85483,1.1258 6.5435,3.3773 1.82934,2.1108 2.74402,4.7141 2.74405,7.81 -3e-5,3.0958 -0.91471,5.7695 -2.74405,8.0211 -1.68867,2.1108 -3.86984,3.1662 -6.5435,3.1662 -2.53299,0 -4.71416,-1.0554 -6.54351,-3.1662"
         id="path4339"
         inkscape:connector-curvature="0" />
    </g>
    <path
       sodipodi:type="arc"
       style="fill:#eeeeee;fill-opacity:1;fill-rule:evenodd;stroke:none"
       id="path4356"
       sodipodi:cx="493.47214"
       sodipodi:cy="184.06053"
       sodipodi:rx="11.048544"
       sodipodi:ry="5.126524"
       d="m 504.52068,184.06053 a 11.048544,5.126524 0 1 1 -22.09709,0 11.048544,5.126524 0 1 1 22.09709,0 z"
       transform="matrix(1.856,0,0,3.7758622,-188.26603,-2407.8796)" />
  </g>
  <g
     transform="translate(-233.3506,-56.606989)"
     style="display:inline"
     inkscape:label="Text original copy"
     id="g4314"
     inkscape:groupmode="layer"
     sodipodi:insensitive="true">
    <g
       transform="translate(0,1947.6378)"
       style="font-size:211.08081055px;font-style:normal;font-variant:normal;font-weight:normal;font-stretch:normal;text-align:start;line-height:125%;letter-spacing:0px;word-spacing:0px;writing-mode:lr-tb;text-anchor:start;fill:#333333;fill-opacity:1;stroke:#333333;stroke-width:5;stroke-linejoin:miter;stroke-miterlimit:4;stroke-opacity:1;display:inline;font-family:Trochut;-inkscape-font-specification:Trochut"
       id="text4316">
      <path
         d="m 351.37506,-1777.228 c -1.1e-4,17.3087 -4.50317,30.6068 -13.50917,39.8943 -8.86549,9.1468 -19.34916,13.7203 -31.45104,13.7203 -4.92529,0 -9.4987,-0.9851 -13.72025,-2.9552 -4.08095,-2.1108 -7.38788,-4.7845 -9.9208,-8.021 -4.64382,-5.9103 -7.66931,-11.0466 -9.07648,-15.4089 l 0,66.4904 -22.79672,0 0,-187.8619 22.79672,0 0,23.2189 c 1.97005,-6.0509 5.83986,-11.75 11.60945,-17.0976 5.91021,-5.4879 13.08695,-8.232 21.53024,-8.2321 13.50909,10e-5 24.2742,4.7846 32.29536,14.3535 8.16168,9.4284 12.24258,22.7265 12.24269,39.8943 l 0,42.005 m -23.00781,10.7652 0,-63.3243 c -9e-5,-12.3833 -2.32198,-21.5301 -6.96566,-27.4405 -4.64386,-5.9101 -11.18736,-8.8652 -19.63052,-8.8654 -8.30257,2e-4 -15.05715,4.2921 -20.26376,12.8759 -5.06598,8.4434 -7.59894,18.3642 -7.59891,29.7624 l 0,50.8705 c -3e-5,10.4134 2.74401,19.9824 8.23216,28.707 5.62877,8.584 13.01659,12.8759 22.16348,12.8759 4.22154,0 7.88027,-0.9146 10.9762,-2.744 3.23649,-1.9701 5.62874,-4.2216 7.17675,-6.7546 1.68856,-2.6737 3.0254,-5.8399 4.01054,-9.4986 1.26639,-5.3474 1.89963,-10.8355 1.89972,-16.4643"
         id="path4342"
         inkscape:connector-curvature="0" />
      <path
         d="m 447.93794,-1734.1675 c 2.6736,0 4.85476,-2.2515 6.5435,-6.7546 l 4.01054,0.6333 c -1e-4,1.2665 -0.42226,3.0255 -1.26649,5.277 -0.84441,2.2515 -1.82946,4.0809 -2.95513,5.4881 -2.67378,3.9402 -6.68431,5.9103 -12.03161,5.9103 -11.67987,0 -17.51976,-6.9657 -17.5197,-20.897 l 0,-56.3586 c -6e-5,-13.2277 -4.15132,-19.8415 -12.45377,-19.8416 -5.48815,1e-4 -9.78012,2.4627 -12.87593,7.3878 -3.09589,4.9253 -4.64381,10.6245 -4.64378,17.0976 l 0,70.501 -18.15295,0 0,-145.6458 18.15295,0 0,58.6805 c 4.08086,-9.5689 10.69472,-14.3534 19.8416,-14.3535 9.14677,10e-5 16.18279,3.0256 21.10808,9.0764 4.92514,5.9104 7.38775,14.0018 7.38783,24.2743 l 0,52.3481 c -8e-5,4.7845 1.6182,7.1767 4.85486,7.1767"
         id="path4344"
         inkscape:connector-curvature="0" />
      <path
         d="m 536.82934,-1758.8639 c -8e-5,10.2726 -2.95521,18.7158 -8.8654,25.3297 -5.7696,6.6138 -13.93138,9.9208 -24.48537,9.9208 -10.55407,0 -18.78622,-3.307 -24.69646,-9.9208 -5.76955,-6.6139 -8.65432,-15.0571 -8.65431,-25.3297 l 0,-33.1397 c -10e-6,-10.2725 2.88476,-18.6454 8.65431,-25.1186 5.91024,-6.6138 14.14239,-9.9207 24.69646,-9.9208 10.55399,10e-5 18.71577,3.307 24.48537,9.9208 5.91019,6.4732 8.86532,14.8461 8.8654,25.1186 l 0,33.1397 m -18.36403,8.2321 0,-49.604 c -6e-5,-13.6498 -5.066,-20.4747 -15.19782,-20.4748 -9.99119,1e-4 -14.98677,6.825 -14.98674,20.4748 l 0,49.604 c -3e-5,13.7906 4.99555,20.6859 14.98674,20.6859 10.13182,0 15.19776,-6.8953 15.19782,-20.6859"
         id="path4346"
         inkscape:connector-curvature="0" />
      <path
         d="m 585.17015,-1734.1675 c 2.67365,0 4.85482,-2.2515 6.54351,-6.7546 l 4.01053,0.6333 c -4e-5,1.2665 -0.42221,3.0255 -1.26648,5.277 -0.84437,2.2515 -1.82941,4.1513 -2.95513,5.6992 -0.98509,1.4072 -2.60337,2.6737 -4.85486,3.7994 -2.11085,1.2665 -4.57345,1.8998 -7.38783,1.8998 -11.5391,0 -17.30864,-6.9657 -17.30863,-20.897 l 0,-74.3005 -9.28755,0 0,-6.1213 9.28755,0 0,-35.8838 18.36403,0 0,35.8838 15.19782,0 0,6.1213 -15.19782,0 0,77.8888 c -3e-5,4.5031 1.61826,6.7546 4.85486,6.7546"
         id="path4348"
         inkscape:connector-curvature="0" />
      <path
         d="m 678.23699,-1758.8639 c -8e-5,10.2726 -2.9552,18.7158 -8.86539,25.3297 -5.76961,6.6138 -13.93139,9.9208 -24.48538,9.9208 -10.55407,0 -18.78621,-3.307 -24.69645,-9.9208 -5.76956,-6.6139 -8.65433,-15.0571 -8.65431,-25.3297 l 0,-33.1397 c -2e-5,-10.2725 2.88475,-18.6454 8.65431,-25.1186 5.91024,-6.6138 14.14238,-9.9207 24.69645,-9.9208 10.55399,10e-5 18.71577,3.307 24.48538,9.9208 5.91019,6.4732 8.86531,14.8461 8.86539,25.1186 l 0,33.1397 m -18.36403,8.2321 0,-49.604 c -6e-5,-13.6498 -5.06599,-20.4747 -15.19782,-20.4748 -9.99119,1e-4 -14.98676,6.825 -14.98673,20.4748 l 0,49.604 c -3e-5,13.7906 4.99554,20.6859 14.98673,20.6859 10.13183,0 15.19776,-6.8953 15.19782,-20.6859"
         id="path4350"
         inkscape:connector-curvature="0" />
      <path
         d="m 765.83884,-1824.9322 0,84.2212 c -8e-5,33.4915 -12.45383,50.2372 -37.36131,50.2373 -7.17678,-10e-5 -12.94631,-1.7591 -17.30862,-5.2771 -3.9402,-2.9551 -6.89532,-6.1213 -8.8654,-9.4986 l 3.58838,-2.9551 c 1.26646,2.3922 3.86979,4.7141 7.80999,6.9656 4.08086,2.3923 8.23212,3.5884 12.45377,3.5884 4.36229,0 8.02102,-0.9147 10.9762,-2.744 2.95508,-1.6887 5.13624,-4.3624 6.5435,-8.0211 2.53292,-6.051 3.7994,-14.9164 3.79946,-26.5962 l 0,-3.3773 c -3.79951,9.8504 -10.27265,14.7757 -19.41944,14.7757 -9.14686,0 -16.25324,-3.0255 -21.31916,-9.0765 -4.92523,-6.051 -7.38784,-14.2128 -7.38783,-24.4854 l 0,-36.517 c -10e-6,-10.2725 2.4626,-18.3639 7.38783,-24.2743 5.06592,-6.0508 11.8205,-9.0763 20.26376,-9.0764 9.99111,10e-5 16.81605,4.7142 20.47484,14.1424 l 0,-12.0316 18.36403,0 m -18.36403,70.2899 0,-41.5829 c -6e-5,-6.4731 -1.54799,-12.1723 -4.64378,-17.0976 -2.95518,-4.9251 -7.17679,-7.3877 -12.66485,-7.3878 -8.30254,1e-4 -12.4538,6.5436 -12.45377,19.6305 l 0,50.8705 c -3e-5,13.2277 4.08087,19.8416 12.24269,19.8416 5.7695,0 10.13183,-2.3219 13.08701,-6.9657 2.95507,-4.6437 4.43264,-10.4133 4.4327,-17.3086"
         id="path4352"
         inkscape:connector-curvature="0" />
      <path
         d="m 791.33343,-1862.0824 c -10e-6,-3.5179 1.05539,-6.262 3.16621,-8.2322 2.25151,-2.1107 4.64376,-3.1661 7.17675,-3.1662 2.67366,10e-5 5.06591,1.0555 7.17675,3.1662 2.25149,1.9702 3.37725,4.7143 3.37729,8.2322 l -6.54351,103.8517 -7.80999,0 -6.5435,-103.8517 m 3.79945,135.3028 c -1.82938,-2.2516 -2.74406,-4.9253 -2.74405,-8.0211 -10e-6,-3.0959 0.91467,-5.6992 2.74405,-7.81 1.82935,-2.2515 4.01052,-3.3773 6.54351,-3.3773 2.67366,0 4.85483,1.1258 6.5435,3.3773 1.82934,2.1108 2.74402,4.7141 2.74405,7.81 -3e-5,3.0958 -0.91471,5.7695 -2.74405,8.0211 -1.68867,2.1108 -3.86984,3.1662 -6.5435,3.1662 -2.53299,0 -4.71416,-1.0554 -6.54351,-3.1662"
         id="path4354"
         inkscape:connector-curvature="0" />
    </g>
  </g>
</svg>
