<?xml version="1.0" encoding="UTF-8" standalone="no"?>
<!-- Generator: Adobe Illustrator 16.0.0, SVG Export Plug-In . SVG Version: 6.00 Build 0)  -->

<svg
   xmlns:dc="http://purl.org/dc/elements/1.1/"
   xmlns:cc="http://creativecommons.org/ns#"
   xmlns:rdf="http://www.w3.org/1999/02/22-rdf-syntax-ns#"
   xmlns:svg="http://www.w3.org/2000/svg"
   xmlns="http://www.w3.org/2000/svg"
   xmlns:sodipodi="http://sodipodi.sourceforge.net/DTD/sodipodi-0.dtd"
   xmlns:inkscape="http://www.inkscape.org/namespaces/inkscape"
   version="1.1"
   id="Capa_1"
   x="0px"
   y="0px"
   width="112px"
   height="112px"
   viewBox="0 0 112 112"
   style="enable-background:new 0 0 112 112;"
   xml:space="preserve"
   inkscape:version="0.48.5 r10040"
   sodipodi:docname="automated.svg"><metadata
     id="metadata41"><rdf:RDF><cc:Work
         rdf:about=""><dc:format>image/svg+xml</dc:format><dc:type
           rdf:resource="http://purl.org/dc/dcmitype/StillImage" /></cc:Work></rdf:RDF></metadata><defs
     id="defs39" /><sodipodi:namedview
     pagecolor="#ffffff"
     bordercolor="#666666"
     borderopacity="1"
     objecttolerance="10"
     gridtolerance="10"
     guidetolerance="10"
     inkscape:pageopacity="0"
     inkscape:pageshadow="2"
     inkscape:window-width="1920"
     inkscape:window-height="1076"
     id="namedview37"
     showgrid="false"
     inkscape:zoom="2.1071429"
     inkscape:cx="-27.762712"
     inkscape:cy="56"
     inkscape:window-x="0"
     inkscape:window-y="0"
     inkscape:window-maximized="0"
     inkscape:current-layer="Capa_1" /><g
     id="g3"
     style="fill:#3f4c61;fill-opacity:1"><path
       d="M74.666,0H0v74.666h74.666V0z M65.334,56H56c-1.814-6.762-5.771-9.907-10.822-11.232c-2.338,1.25-5.007,1.969-7.845,1.969   c-2.833,0-5.502-0.714-7.84-1.969c-5.054,1.325-9.011,4.47-10.827,11.232H9.333V9.333h56L65.334,56L65.334,56z M37.333,42   c7.731,0,14-6.268,14-14s-6.269-14-14-14c-7.733,0-14,6.268-14,14S29.602,42,37.333,42z M46.695,32.667   c-1.723,3.444-5.25,5.833-9.361,5.833s-7.641-2.389-9.361-5.833H46.695z M23.833,79.334h55.501V55.235l6.977-27.421l-6.977-1.773   v-9.632l18.32,4.662l-18.41,72.363L23.833,79.334z M112,42.826L83.896,112L14.718,83.896l0.765-1.875l67.136,17.084l5.963-23.438   l11.257-27.71l-3.812-1.549l2.324-9.133L112,42.826z"
       id="path5"
       style="fill:#3f4c61;fill-opacity:1" /></g><g
     id="g7" /><g
     id="g9" /><g
     id="g11" /><g
     id="g13" /><g
     id="g15" /><g
     id="g17" /><g
     id="g19" /><g
     id="g21" /><g
     id="g23" /><g
     id="g25" /><g
     id="g27" /><g
     id="g29" /><g
     id="g31" /><g
     id="g33" /><g
     id="g35" /></svg>