<?xml version="1.0" encoding="iso-8859-1"?>
<!-- Generator: Adobe Illustrator 16.0.0, SVG Export Plug-In . SVG Version: 6.00 Build 0)  -->
<!DOCTYPE svg PUBLIC "-//W3C//DTD SVG 1.1//EN" "http://www.w3.org/Graphics/SVG/1.1/DTD/svg11.dtd">
<svg version="1.1" id="Capa_1" xmlns="http://www.w3.org/2000/svg" xmlns:xlink="http://www.w3.org/1999/xlink" x="0px" y="0px"
	 width="112px" height="112px" viewBox="0 0 112 112" style="enable-background:new 0 0 112 112;" xml:space="preserve">
<g>
	<path d="M74.666,0H0v74.666h74.666V0z M65.334,56H56c-1.814-6.762-5.771-9.907-10.822-11.232c-2.338,1.25-5.007,1.969-7.845,1.969
		c-2.833,0-5.502-0.714-7.84-1.969c-5.054,1.325-9.011,4.47-10.827,11.232H9.333V9.333h56L65.334,56L65.334,56z M37.333,42
		c7.731,0,14-6.268,14-14s-6.269-14-14-14c-7.733,0-14,6.268-14,14S29.602,42,37.333,42z M46.695,32.667
		c-1.723,3.444-5.25,5.833-9.361,5.833s-7.641-2.389-9.361-5.833H46.695z M23.833,79.334h55.501V55.235l6.977-27.421l-6.977-1.773
		v-9.632l18.32,4.662l-18.41,72.363L23.833,79.334z M112,42.826L83.896,112L14.718,83.896l0.765-1.875l67.136,17.084l5.963-23.438
		l11.257-27.71l-3.812-1.549l2.324-9.133L112,42.826z"/>
</g>
<g>
</g>
<g>
</g>
<g>
</g>
<g>
</g>
<g>
</g>
<g>
</g>
<g>
</g>
<g>
</g>
<g>
</g>
<g>
</g>
<g>
</g>
<g>
</g>
<g>
</g>
<g>
</g>
<g>
</g>
</svg>
