<?xml version="1.0" encoding="UTF-8" standalone="no"?>
<!-- Generator: Adobe Illustrator 16.0.0, SVG Export Plug-In . SVG Version: 6.00 Build 0)  -->

<svg
   xmlns:dc="http://purl.org/dc/elements/1.1/"
   xmlns:cc="http://creativecommons.org/ns#"
   xmlns:rdf="http://www.w3.org/1999/02/22-rdf-syntax-ns#"
   xmlns:svg="http://www.w3.org/2000/svg"
   xmlns="http://www.w3.org/2000/svg"
   xmlns:sodipodi="http://sodipodi.sourceforge.net/DTD/sodipodi-0.dtd"
   xmlns:inkscape="http://www.inkscape.org/namespaces/inkscape"
   version="1.1"
   id="Capa_1"
   x="0px"
   y="0px"
   width="48.023px"
   height="48.023px"
   viewBox="0 0 48.023 48.023"
   style="enable-background:new 0 0 48.023 48.023;"
   xml:space="preserve"
   inkscape:version="0.48.5 r10040"
   sodipodi:docname="electricity.svg"><metadata
     id="metadata57"><rdf:RDF><cc:Work
         rdf:about=""><dc:format>image/svg+xml</dc:format><dc:type
           rdf:resource="http://purl.org/dc/dcmitype/StillImage" /></cc:Work></rdf:RDF></metadata><defs
     id="defs55" /><sodipodi:namedview
     pagecolor="#ffffff"
     bordercolor="#666666"
     borderopacity="1"
     objecttolerance="10"
     gridtolerance="10"
     guidetolerance="10"
     inkscape:pageopacity="0"
     inkscape:pageshadow="2"
     inkscape:window-width="1920"
     inkscape:window-height="1076"
     id="namedview53"
     showgrid="false"
     inkscape:zoom="4.914312"
     inkscape:cx="-11.904007"
     inkscape:cy="24.011499"
     inkscape:window-x="0"
     inkscape:window-y="0"
     inkscape:window-maximized="0"
     inkscape:current-layer="Capa_1" /><g
     id="g3"
     transform="translate(0,-1.7965127)"
     style="fill:#3f4c61;fill-opacity:1"><g
       id="g5"
       style="fill:#3f4c61;fill-opacity:1"><path
         d="m 24.012,10.219 c 0.838,0 1.519,-0.681 1.519,-1.519 V 3.257 c 0,-0.838 -0.681,-1.519 -1.519,-1.519 -0.837,0 -1.519,0.681 -1.519,1.519 V 8.7 c 0,0.838 0.682,1.519 1.519,1.519 z"
         id="path7"
         inkscape:connector-curvature="0"
         style="fill:#3f4c61;fill-opacity:1" /><path
         d="m 10.882,14.768 c 0.286,0.287 0.667,0.444 1.073,0.444 0.406,0 0.787,-0.157 1.074,-0.445 0.592,-0.592 0.592,-1.555 0,-2.147 L 9.179,8.771 C 8.892,8.484 8.512,8.327 8.106,8.327 7.7,8.327 7.318,8.484 7.032,8.772 6.745,9.058 6.587,9.439 6.587,9.844 c 0,0.406 0.158,0.787 0.445,1.074 l 3.85,3.85 z"
         id="path9"
         inkscape:connector-curvature="0"
         style="fill:#3f4c61;fill-opacity:1" /><path
         d="m 37.141,36.73 c -0.287,-0.284 -0.668,-0.441 -1.072,-0.441 -0.404,0 -0.787,0.157 -1.074,0.444 -0.287,0.286 -0.443,0.668 -0.441,1.071 0,0.405 0.154,0.787 0.443,1.072 l 3.85,3.852 c 0.287,0.287 0.668,0.445 1.072,0.445 0.406,0 0.787,-0.158 1.074,-0.445 0.59,-0.594 0.59,-1.555 0,-2.146 L 37.141,36.73 z"
         id="path11"
         inkscape:connector-curvature="0"
         style="fill:#3f4c61;fill-opacity:1" /><path
         d="m 8.479,25.75 c 0,-0.838 -0.681,-1.52 -1.518,-1.52 H 1.518 C 0.681,24.23 0,24.913 0,25.75 c 0,0.837 0.681,1.519 1.518,1.519 H 6.961 C 7.799,27.267 8.479,26.587 8.479,25.75 z"
         id="path13"
         inkscape:connector-curvature="0"
         style="fill:#3f4c61;fill-opacity:1" /><path
         d="m 46.506,24.23 h -5.443 c -0.838,0 -1.521,0.682 -1.521,1.52 0,0.837 0.683,1.519 1.521,1.519 h 5.443 c 0.836,0 1.518,-0.682 1.518,-1.519 0,-0.837 -0.682,-1.52 -1.518,-1.52 z"
         id="path15"
         inkscape:connector-curvature="0"
         style="fill:#3f4c61;fill-opacity:1" /><path
         d="m 11.955,36.289 c -0.405,0 -0.787,0.157 -1.074,0.444 l -3.849,3.849 c -0.592,0.594 -0.592,1.557 0,2.146 0.286,0.287 0.667,0.445 1.073,0.445 0.405,0 0.787,-0.158 1.074,-0.445 l 3.849,-3.852 c 0.287,-0.285 0.444,-0.667 0.444,-1.072 0,-0.403 -0.158,-0.785 -0.445,-1.074 -0.285,-0.284 -0.666,-0.441 -1.072,-0.441 z"
         id="path17"
         inkscape:connector-curvature="0"
         style="fill:#3f4c61;fill-opacity:1" /><path
         d="m 36.068,15.211 c 0.404,0 0.787,-0.157 1.074,-0.444 l 3.85,-3.851 C 41.277,10.631 41.435,10.25 41.435,9.844 41.435,9.44 41.277,9.057 40.99,8.77 40.705,8.484 40.324,8.327 39.918,8.327 c -0.404,0 -0.785,0.157 -1.072,0.444 l -3.85,3.849 c -0.289,0.287 -0.443,0.668 -0.443,1.072 0,0.406 0.154,0.788 0.443,1.075 0.285,0.289 0.665,0.444 1.072,0.444 z"
         id="path19"
         inkscape:connector-curvature="0"
         style="fill:#3f4c61;fill-opacity:1" /><path
         d="m 24.072,14.68 c -6.093,0 -11.05,4.956 -11.05,11.048 0,4.385 2.51,9.209 5.966,11.682 v 6.456 c 0,0.678 0.458,1.271 1.115,1.44 l 3.596,0.933 c 0.123,0.03 0.248,0.047 0.373,0.047 0.125,0 0.25,-0.017 0.373,-0.047 l 3.596,-0.933 c 0.656,-0.17 1.115,-0.766 1.115,-1.44 V 37.41 C 32.613,34.937 35.121,30.112 35.121,25.728 35.12,19.636 30.163,14.68 24.072,14.68 z m 2.106,28.031 0,0 -2.105,0.546 -2.105,-0.546 v -1.815 h 4.21 v 1.815 z m 0.627,-7.325 c -0.584,0.336 -0.871,1.021 -0.695,1.674 0.018,0.068 0.039,0.137 0.066,0.201 v 1.398 h -4.21 v -1.398 c 0.028,-0.064 0.051,-0.134 0.069,-0.201 0.173,-0.65 -0.113,-1.34 -0.698,-1.674 C 18.344,33.666 16,29.427 16,25.73 c 0,-4.449 3.62,-8.07 8.073,-8.07 4.449,0 8.068,3.621 8.068,8.07 0.002,3.697 -2.342,7.937 -5.336,9.656 z"
         id="path21"
         inkscape:connector-curvature="0"
         style="fill:#3f4c61;fill-opacity:1" /></g></g><g
     id="g23" /><g
     id="g25" /><g
     id="g27" /><g
     id="g29" /><g
     id="g31" /><g
     id="g33" /><g
     id="g35" /><g
     id="g37" /><g
     id="g39" /><g
     id="g41" /><g
     id="g43" /><g
     id="g45" /><g
     id="g47" /><g
     id="g49" /><g
     id="g51" /></svg>