<?xml version="1.0" encoding="UTF-8" standalone="no"?>
<!-- Generator: Adobe Illustrator 16.0.0, SVG Export Plug-In . SVG Version: 6.00 Build 0)  -->

<svg
   xmlns:dc="http://purl.org/dc/elements/1.1/"
   xmlns:cc="http://creativecommons.org/ns#"
   xmlns:rdf="http://www.w3.org/1999/02/22-rdf-syntax-ns#"
   xmlns:svg="http://www.w3.org/2000/svg"
   xmlns="http://www.w3.org/2000/svg"
   xmlns:sodipodi="http://sodipodi.sourceforge.net/DTD/sodipodi-0.dtd"
   xmlns:inkscape="http://www.inkscape.org/namespaces/inkscape"
   version="1.1"
   id="Capa_1"
   x="0px"
   y="0px"
   width="112px"
   height="112px"
   viewBox="0 0 112 112"
   style="enable-background:new 0 0 112 112;"
   xml:space="preserve"
   inkscape:version="0.48.5 r10040"
   sodipodi:docname="exif.svg"><metadata
     id="metadata41"><rdf:RDF><cc:Work
         rdf:about=""><dc:format>image/svg+xml</dc:format><dc:type
           rdf:resource="http://purl.org/dc/dcmitype/StillImage" /></cc:Work></rdf:RDF></metadata><defs
     id="defs39" /><sodipodi:namedview
     pagecolor="#ffffff"
     bordercolor="#666666"
     borderopacity="1"
     objecttolerance="10"
     gridtolerance="10"
     guidetolerance="10"
     inkscape:pageopacity="0"
     inkscape:pageshadow="2"
     inkscape:window-width="1920"
     inkscape:window-height="1076"
     id="namedview37"
     showgrid="false"
     inkscape:zoom="4.2142857"
     inkscape:cx="54.342458"
     inkscape:cy="55.028428"
     inkscape:window-x="0"
     inkscape:window-y="0"
     inkscape:window-maximized="0"
     inkscape:current-layer="Capa_1" /><g
     id="g3"
     transform="matrix(0.74576725,0,0,0.74576725,14.237034,2.3727542)"><path
       d="M 83.748,66.324 C 82.394,75.168 75.166,82.395 66.322,83.75 52.131,85.924 40.082,73.875 42.257,59.683 43.61,50.84 50.839,43.611 59.682,42.258 73.869,40.083 85.918,52.125 83.748,66.324 z M 112,31.85 v 62.299 c 0,4.705 -3.812,8.519 -8.512,8.519 H 8.516 C 3.813,102.667 0,98.854 0,94.155 V 31.85 c 0,-4.704 3.812,-8.517 8.517,-8.517 h 0.817 v -1.895 c 0,-1.531 1.241,-2.772 2.772,-2.772 h 13.123 c 1.53,0 2.771,1.241 2.771,2.772 v 1.895 h 7.229 l 5.717,-11.816 c 0.645,-1.334 1.998,-2.184 3.478,-2.184 H 81.58 c 1.479,0 2.832,0.85 3.471,2.184 l 5.717,11.816 h 12.717 c 4.703,0 8.515,3.813 8.515,8.517 z m -87.5,0.817 c 0,-3.22 -2.613,-5.833 -5.833,-5.833 -3.22,0 -5.833,2.613 -5.833,5.833 0,3.22 2.613,5.833 5.833,5.833 3.22,0 5.833,-2.614 5.833,-5.833 z m 31.561,0.77 C 44.909,35.91 35.912,44.908 33.438,56.061 28.528,78.19 47.811,97.468 69.939,92.563 81.092,90.088 90.088,81.09 92.564,69.938 97.469,47.811 78.189,28.532 56.061,33.437 z"
       id="path5"
       inkscape:connector-curvature="0" /></g><g
     id="g7" /><g
     id="g9" /><g
     id="g11" /><g
     id="g13" /><g
     id="g15" /><g
     id="g17" /><g
     id="g19" /><g
     id="g21" /><g
     id="g23" /><g
     id="g25" /><g
     id="g27" /><g
     id="g29" /><g
     id="g31" /><g
     id="g33" /><g
     id="g35" /></svg>