<?xml version="1.0" encoding="iso-8859-1"?>
<!-- Generator: Adobe Illustrator 16.0.0, SVG Export Plug-In . SVG Version: 6.00 Build 0)  -->
<!DOCTYPE svg PUBLIC "-//W3C//DTD SVG 1.1//EN" "http://www.w3.org/Graphics/SVG/1.1/DTD/svg11.dtd">
<svg version="1.1" id="Capa_1" xmlns="http://www.w3.org/2000/svg" xmlns:xlink="http://www.w3.org/1999/xlink" x="0px" y="0px"
	 width="125.041px" height="125.041px" viewBox="0 0 125.041 125.041" style="enable-background:new 0 0 125.041 125.041;"
	 xml:space="preserve">
<g>
	<g>
		<path d="M46.864,79.32c-0.546-0.424-4.877-3.699-16.893-4.496c-0.661-0.055-1.327-0.523-1.914-0.917
			c-0.747-0.497-1.523-1.019-2.089-1.692c-0.92-1.098-1.959-2.021-2.832-3.24c-5.842-8.145-11.567-9.78-12.423-10.103
			c-1.14-0.55-5.507,0.127-3.409,3.039c0.133,0.022,6.68,9.219,7.105,9.954c0.752,1.298,1.603,1.828,2.402,2.74
			c0.73,0.832,1.538,1.597,2.284,2.414c0,0-4.187-2.479-5.19-3.564c-0.447-0.486-0.662-1.184-1.018-1.762
			c-0.412-0.666-0.85-1.315-1.297-1.957c-0.56-0.801-1.123-1.6-1.717-2.375c-0.758-0.987-1.545-1.953-2.326-2.924
			c-0.486-0.604-1.035-1.187-1.436-1.817c-1.98-3.128,0.281-4.999,2.433-5.235c-0.104-0.36-1.094-9.819-1.267-11.407
			c-0.494-4.56-0.982-7.938-3.596-8.857c-0.674-0.238-1.15-0.158-1.652,0.372c-0.594,0.624-0.948,3.936-1.119,6.03
			c0,0-1.143,11.236-0.868,16.479c0.147,2.812,8.882,22.156,11.392,25.145c2.508,2.988,22.139,14.305,22.139,14.305
			c0.656,0.546,4.291,3.345,4.291,7.015v7.968l21.164,0.024l0.018-7.312c0.049-1.351,0.279-2.694,0.441-4.041
			c0.461-1.537,0.092-4.441-0.123-5.569C56.906,86.566,47.854,80.085,46.864,79.32z"/>
		<path d="M124.132,43.521c-0.172-2.095-0.525-5.406-1.119-6.03c-0.502-0.53-0.979-0.61-1.653-0.372
			c-2.611,0.92-3.102,4.298-3.595,8.857c-0.174,1.588-1.163,11.047-1.268,11.407c2.151,0.236,4.414,2.107,2.433,5.235
			c-0.4,0.632-0.948,1.214-1.435,1.818c-0.781,0.97-1.569,1.936-2.327,2.922c-0.595,0.775-1.157,1.574-1.716,2.375
			c-0.447,0.643-0.887,1.291-1.298,1.957c-0.354,0.578-0.569,1.274-1.019,1.763c-1.004,1.087-5.19,3.565-5.19,3.565
			c0.746-0.818,1.556-1.584,2.285-2.416c0.799-0.91,1.649-1.441,2.401-2.74c0.427-0.734,6.974-9.931,7.105-9.953
			c2.099-2.912-2.27-3.589-3.409-3.039c-0.855,0.322-6.58,1.958-12.423,10.102c-0.872,1.219-1.912,2.145-2.832,3.241
			c-0.565,0.675-1.343,1.195-2.09,1.692c-0.587,0.393-1.253,0.861-1.914,0.916c-12.016,0.798-16.346,4.074-16.893,4.498
			c-0.989,0.766-10.041,7.244-12.5,18.214c-0.216,1.128-0.584,4.032-0.123,5.569c0.162,1.347,0.393,2.69,0.441,4.041l0.018,7.312
			l21.164-0.024v-7.968c0-3.67,3.635-6.469,4.291-7.015c0,0,19.63-11.314,22.139-14.305c2.51-2.988,11.243-22.332,11.392-25.145
			C125.274,54.757,124.132,43.521,124.132,43.521z"/>
		<path d="M75.276,68.515c10.04-9.445,22.504-21.171,24.217-31.607c1.201-7.38,0.026-13.463-3.492-18.081
			c-3.553-4.662-8.956-7.323-16.523-8.136c-0.729-0.073-1.393-0.107-2.053-0.107c-5.353,0-10.756,1.994-14.903,5.361
			c-4.146-3.367-9.551-5.361-14.902-5.361c-0.66,0-1.323,0.034-2.053,0.107C38,11.503,32.594,14.165,29.043,18.827
			c-3.52,4.618-4.694,10.701-3.492,18.081c1.712,10.437,14.176,22.163,24.216,31.607c0,0,5.008,5.025,6.513,6.315
			c1.131,0.972,3.585,2.929,6.242,2.929c2.658,0,5.112-1.957,6.243-2.929C70.269,73.541,75.276,68.515,75.276,68.515z
			 M49.773,23.035c-6.396,0-11.601,4.629-11.601,10.319c0,1.727-1.399,3.126-3.127,3.126c-1.727,0-3.125-1.399-3.125-3.126
			c0-9.138,8.008-16.571,17.853-16.571c1.727,0,3.126,1.399,3.126,3.126S51.5,23.035,49.773,23.035z"/>
	</g>
</g>
<g>
</g>
<g>
</g>
<g>
</g>
<g>
</g>
<g>
</g>
<g>
</g>
<g>
</g>
<g>
</g>
<g>
</g>
<g>
</g>
<g>
</g>
<g>
</g>
<g>
</g>
<g>
</g>
<g>
</g>
</svg>
