<?xml version="1.0" encoding="UTF-8" standalone="no"?>
<!-- Generator: Adobe Illustrator 18.1.1, SVG Export Plug-In . SVG Version: 6.00 Build 0)  -->

<svg
   xmlns:dc="http://purl.org/dc/elements/1.1/"
   xmlns:cc="http://creativecommons.org/ns#"
   xmlns:rdf="http://www.w3.org/1999/02/22-rdf-syntax-ns#"
   xmlns:svg="http://www.w3.org/2000/svg"
   xmlns="http://www.w3.org/2000/svg"
   xmlns:sodipodi="http://sodipodi.sourceforge.net/DTD/sodipodi-0.dtd"
   xmlns:inkscape="http://www.inkscape.org/namespaces/inkscape"
   version="1.1"
   id="Capa_1"
   x="0px"
   y="0px"
   viewBox="0 0 30.851 30.851"
   style="enable-background:new 0 0 30.851 30.851;"
   xml:space="preserve"
   inkscape:version="0.48.5 r10040"
   width="100%"
   height="100%"
   sodipodi:docname="os-independent.svg"><metadata
     id="metadata3250"><rdf:RDF><cc:Work
         rdf:about=""><dc:format>image/svg+xml</dc:format><dc:type
           rdf:resource="http://purl.org/dc/dcmitype/StillImage" /></cc:Work></rdf:RDF></metadata><defs
     id="defs3248" /><sodipodi:namedview
     pagecolor="#ffffff"
     bordercolor="#666666"
     borderopacity="1"
     objecttolerance="10"
     gridtolerance="10"
     guidetolerance="10"
     inkscape:pageopacity="0"
     inkscape:pageshadow="2"
     inkscape:window-width="1920"
     inkscape:window-height="1076"
     id="namedview3246"
     showgrid="false"
     inkscape:zoom="7.649671"
     inkscape:cx="-7.6473877"
     inkscape:cy="15.4255"
     inkscape:window-x="0"
     inkscape:window-y="0"
     inkscape:window-maximized="0"
     inkscape:current-layer="Capa_1" /><g
     id="g3206"
     style="fill:#3f4c61;fill-opacity:1"><g
       id="c43_terminal"
       style="fill:#3f4c61;fill-opacity:1"><path
         d="M28.645,2.203H2.204C0.987,2.203,0,3.188,0,4.405v22.038c0,1.216,0.987,2.204,2.204,2.204h26.441    c1.215,0,2.206-0.988,2.206-2.204V4.405C30.851,3.188,29.859,2.203,28.645,2.203z M7.162,3.857c0.607,0,1.102,0.491,1.102,1.103    c0,0.607-0.494,1.098-1.102,1.098c-0.611,0-1.104-0.49-1.104-1.098C6.059,4.349,6.551,3.857,7.162,3.857z M3.855,3.857    c0.608,0,1.102,0.491,1.102,1.103c0,0.607-0.493,1.098-1.102,1.098S2.752,5.568,2.752,4.96C2.753,4.349,3.246,3.857,3.855,3.857z     M28.645,26.444H2.204V7.735h26.441V26.444z"
         id="path3209"
         style="fill:#3f4c61;fill-opacity:1" /><polygon
         points="12.351,12.264 5.275,9.028 5.275,10.589 10.746,12.929 10.746,12.958 5.275,15.294 5.275,16.854 12.351,13.618       "
         id="polygon3211"
         style="fill:#3f4c61;fill-opacity:1" /><rect
         x="15.682"
         y="12.199"
         width="3.855"
         height="1.486"
         id="rect3213"
         style="fill:#3f4c61;fill-opacity:1" /></g><g
       id="Capa_1_86_"
       style="fill:#3f4c61;fill-opacity:1" /></g><g
     id="g3216" /><g
     id="g3218" /><g
     id="g3220" /><g
     id="g3222" /><g
     id="g3224" /><g
     id="g3226" /><g
     id="g3228" /><g
     id="g3230" /><g
     id="g3232" /><g
     id="g3234" /><g
     id="g3236" /><g
     id="g3238" /><g
     id="g3240" /><g
     id="g3242" /><g
     id="g3244" /></svg>