<?xml version="1.0" encoding="UTF-8" standalone="no"?>
<!-- Created with Inkscape (http://www.inkscape.org/) -->

<svg
   xmlns:dc="http://purl.org/dc/elements/1.1/"
   xmlns:cc="http://creativecommons.org/ns#"
   xmlns:rdf="http://www.w3.org/1999/02/22-rdf-syntax-ns#"
   xmlns:svg="http://www.w3.org/2000/svg"
   xmlns="http://www.w3.org/2000/svg"
   xmlns:sodipodi="http://sodipodi.sourceforge.net/DTD/sodipodi-0.dtd"
   xmlns:inkscape="http://www.inkscape.org/namespaces/inkscape"
   width="40"
   height="40"
   id="svg3042"
   version="1.1"
   inkscape:version="0.48.5 r10040"
   sodipodi:docname="New document 2">
  <defs
     id="defs3044" />
  <sodipodi:namedview
     id="base"
     pagecolor="#ffffff"
     bordercolor="#666666"
     borderopacity="1.0"
     inkscape:pageopacity="0.0"
     inkscape:pageshadow="2"
     inkscape:zoom="11.2"
     inkscape:cx="25.527691"
     inkscape:cy="20.296623"
     inkscape:document-units="px"
     inkscape:current-layer="layer1"
     showgrid="false"
     inkscape:object-nodes="true"
     inkscape:window-width="1920"
     inkscape:window-height="1076"
     inkscape:window-x="0"
     inkscape:window-y="0"
     inkscape:window-maximized="0" />
  <metadata
     id="metadata3047">
    <rdf:RDF>
      <cc:Work
         rdf:about="">
        <dc:format>image/svg+xml</dc:format>
        <dc:type
           rdf:resource="http://purl.org/dc/dcmitype/StillImage" />
        <dc:title></dc:title>
      </cc:Work>
    </rdf:RDF>
  </metadata>
  <g
     inkscape:label="Layer 1"
     inkscape:groupmode="layer"
     id="layer1"
     transform="translate(0,-1012.3622)">
    <path
       inkscape:connector-curvature="0"
       style="opacity:1;fill:#000000;fill-opacity:1;fill-rule:evenodd;stroke:none;display:inline"
       d="m 3.4517819,1019.9773 0,23 33.2500001,0 0,-23 -33.2500001,0 z m 2,2 29.2500001,0 0,19 -29.2500001,0 0,-19 z"
       id="rect3020" />
    <path
       style="fill:#000000;fill-opacity:1;fill-rule:evenodd;stroke:none"
       d="M 7.1875 11.125 L 7.1875 18 L 16.9375 18 L 16.9375 11.125 L 7.1875 11.125 z M 18.65625 11.125 L 18.65625 18 L 32.8125 18 L 32.8125 11.125 L 18.65625 11.125 z M 7.1875 19.5 L 7.1875 27 L 23.65625 27 L 23.65625 19.5 L 7.1875 19.5 z M 25.40625 19.5 L 25.40625 27 L 32.8125 27 L 32.8125 19.5 L 25.40625 19.5 z "
       transform="translate(0,1012.3622)"
       id="rect3027" />
    <rect
       style="fill:#000000;fill-opacity:1;fill-rule:evenodd;stroke:none;opacity:1"
       id="rect3831"
       width="39.5"
       height="2"
       x="0.3267819"
       y="1043.4773" />
  </g>
</svg>
