<?xml version="1.0" encoding="UTF-8" standalone="no"?>
<!-- Created with Inkscape (http://www.inkscape.org/) -->

<svg
   xmlns:dc="http://purl.org/dc/elements/1.1/"
   xmlns:cc="http://creativecommons.org/ns#"
   xmlns:rdf="http://www.w3.org/1999/02/22-rdf-syntax-ns#"
   xmlns:svg="http://www.w3.org/2000/svg"
   xmlns="http://www.w3.org/2000/svg"
   xmlns:sodipodi="http://sodipodi.sourceforge.net/DTD/sodipodi-0.dtd"
   xmlns:inkscape="http://www.inkscape.org/namespaces/inkscape"
   width="40"
   height="40"
   id="svg3042"
   version="1.1"
   inkscape:version="0.48.5 r10040"
   sodipodi:docname="templates.svg">
  <defs
     id="defs3044" />
  <sodipodi:namedview
     id="base"
     pagecolor="#ffffff"
     bordercolor="#666666"
     borderopacity="1.0"
     inkscape:pageopacity="0.0"
     inkscape:pageshadow="2"
     inkscape:zoom="11.2"
     inkscape:cx="9.7687624"
     inkscape:cy="20.296623"
     inkscape:document-units="px"
     inkscape:current-layer="layer1"
     showgrid="false"
     inkscape:object-nodes="true"
     inkscape:window-width="1920"
     inkscape:window-height="1076"
     inkscape:window-x="0"
     inkscape:window-y="0"
     inkscape:window-maximized="0" />
  <metadata
     id="metadata3047">
    <rdf:RDF>
      <cc:Work
         rdf:about="">
        <dc:format>image/svg+xml</dc:format>
        <dc:type
           rdf:resource="http://purl.org/dc/dcmitype/StillImage" />
        <dc:title />
      </cc:Work>
    </rdf:RDF>
  </metadata>
  <g
     inkscape:label="Layer 1"
     inkscape:groupmode="layer"
     id="layer1"
     transform="translate(0,-1012.3622)">
    <path
       inkscape:connector-curvature="0"
       style="fill:#3f4c61;fill-opacity:1;fill-rule:evenodd;stroke:none;display:inline"
       d="m 3.4517819,1017.5666 0,25.1744 33.2500001,0 0,-25.1744 -33.2500001,0 z m 2,2.1891 29.2500001,0 0,20.7962 -29.2500001,0 0,-20.7962 z"
       id="rect3020" />
    <path
       style="fill:#3f4c61;fill-opacity:1;fill-rule:evenodd;stroke:none"
       d="m 7.1875,1021.4083 0,7.525 9.75,0 0,-7.525 -9.75,0 z m 11.46875,0 0,7.525 14.15625,0 0,-7.525 -14.15625,0 z m -11.46875,9.1668 0,8.209 16.46875,0 0,-8.209 -16.46875,0 z m 18.21875,0 0,8.209 7.40625,0 0,-8.209 -7.40625,0 z"
       id="rect3027"
       inkscape:connector-curvature="0" />
    <rect
       style="fill:#3f4c61;fill-opacity:1;fill-rule:evenodd;stroke:none"
       id="rect3831"
       width="39.5"
       height="2.1890757"
       x="0.3267819"
       y="1043.2882" />
  </g>
</svg>
